<svg xmlns="http://www.w3.org/2000/svg" version="1.1" xmlns:xlink="http://www.w3.org/1999/xlink" xmlns:svgjs="http://svgjs.dev/svgjs" width="1536" height="695" preserveAspectRatio="none" viewBox="0 0 1536 695"><g mask="url(&quot;#SvgjsMask1032&quot;)" fill="none"><rect width="1536" height="695" x="0" y="0" fill="#0e2a47"></rect><path d="M-72.12 522.63L-72.12 522.63" stroke="#132e65" stroke-width="1.5"></path><path d="M-72.12 522.63L62.53 558.43" stroke="#132e65" stroke-width="1.5"></path><path d="M-72.12 522.63L-46.82 665.08" stroke="#132e65" stroke-width="1.5"></path><path d="M-46.82 665.08L-46.82 665.08" stroke="#132e65" stroke-width="1.5"></path><path d="M-46.82 665.08L75.77 689.57" stroke="#132e65" stroke-width="1.5"></path><path d="M-46.82 665.08L62.53 558.43" stroke="#132e65" stroke-width="1.5"></path><path d="M-46.82 665.08L69.96 787.78" stroke="#132e65" stroke-width="1.5"></path><path d="M-97.97 833.83L-97.97 833.83" stroke="#132e65" stroke-width="1.5"></path><path d="M-97.97 833.83L69.96 787.78" stroke="#132e65" stroke-width="1.5"></path><path d="M-97.97 833.83L-46.82 665.08" stroke="#132e65" stroke-width="1.5"></path><path d="M-97.97 833.83L75.77 689.57" stroke="#132e65" stroke-width="1.5"></path><path d="M-97.97 833.83L210.05 840.98" stroke="#132e65" stroke-width="1.5"></path><path d="M-97.97 833.83L-72.12 522.63" stroke="#132e65" stroke-width="1.5"></path><path d="M62.53 558.43L62.53 558.43" stroke="#132e65" stroke-width="1.5"></path><path d="M62.53 558.43L75.77 689.57" stroke="#132e65" stroke-width="1.5"></path><path d="M62.53 558.43L217.7 499.62" stroke="#132e65" stroke-width="1.5"></path><path d="M62.53 558.43L69.96 787.78" stroke="#132e65" stroke-width="1.5"></path><path d="M75.77 689.57L75.77 689.57" stroke="#132e65" stroke-width="1.5"></path><path d="M75.77 689.57L69.96 787.78" stroke="#132e65" stroke-width="1.5"></path><path d="M69.96 787.78L69.96 787.78" stroke="#132e65" stroke-width="1.5"></path><path d="M69.96 787.78L210.05 840.98" stroke="#132e65" stroke-width="1.5"></path><path d="M217.7 499.62L217.7 499.62" stroke="#132e65" stroke-width="1.5"></path><path d="M217.7 499.62L385.83 559.24" stroke="#132e65" stroke-width="1.5"></path><path d="M217.7 499.62L377.16 673.75" stroke="#132e65" stroke-width="1.5"></path><path d="M217.7 499.62L75.77 689.57" stroke="#132e65" stroke-width="1.5"></path><path d="M217.7 499.62L-72.12 522.63" stroke="#132e65" stroke-width="1.5"></path><path d="M217.7 499.62L495.54 381.47" stroke="#132e65" stroke-width="1.5"></path><path d="M210.05 840.98L210.05 840.98" stroke="#132e65" stroke-width="1.5"></path><path d="M210.05 840.98L75.77 689.57" stroke="#132e65" stroke-width="1.5"></path><path d="M210.05 840.98L377.16 673.75" stroke="#132e65" stroke-width="1.5"></path><path d="M210.05 840.98L-46.82 665.08" stroke="#132e65" stroke-width="1.5"></path><path d="M385.83 559.24L385.83 559.24" stroke="#132e65" stroke-width="1.5"></path><path d="M385.83 559.24L377.16 673.75" stroke="#132e65" stroke-width="1.5"></path><path d="M385.83 559.24L519.95 532.69" stroke="#132e65" stroke-width="1.5"></path><path d="M377.16 673.75L377.16 673.75" stroke="#132e65" stroke-width="1.5"></path><path d="M377.16 673.75L546.46 703.61" stroke="#132e65" stroke-width="1.5"></path><path d="M495.54 381.47L495.54 381.47" stroke="#132e65" stroke-width="1.5"></path><path d="M495.54 381.47L519.95 532.69" stroke="#132e65" stroke-width="1.5"></path><path d="M495.54 381.47L385.83 559.24" stroke="#132e65" stroke-width="1.5"></path><path d="M519.95 532.69L519.95 532.69" stroke="#132e65" stroke-width="1.5"></path><path d="M519.95 532.69L546.46 703.61" stroke="#132e65" stroke-width="1.5"></path><path d="M546.46 703.61L546.46 703.61" stroke="#132e65" stroke-width="1.5"></path><path d="M546.46 703.61L557.97 795.25" stroke="#132e65" stroke-width="1.5"></path><path d="M546.46 703.61L702.86 824.44" stroke="#132e65" stroke-width="1.5"></path><path d="M546.46 703.61L385.83 559.24" stroke="#132e65" stroke-width="1.5"></path><path d="M546.46 703.61L710.73 493.02" stroke="#132e65" stroke-width="1.5"></path><path d="M557.97 795.25L557.97 795.25" stroke="#132e65" stroke-width="1.5"></path><path d="M557.97 795.25L702.86 824.44" stroke="#132e65" stroke-width="1.5"></path><path d="M557.97 795.25L377.16 673.75" stroke="#132e65" stroke-width="1.5"></path><path d="M557.97 795.25L803.26 789.17" stroke="#132e65" stroke-width="1.5"></path><path d="M557.97 795.25L519.95 532.69" stroke="#132e65" stroke-width="1.5"></path><path d="M557.97 795.25L385.83 559.24" stroke="#132e65" stroke-width="1.5"></path><path d="M705.3 343.55L705.3 343.55" stroke="#132e65" stroke-width="1.5"></path><path d="M705.3 343.55L710.73 493.02" stroke="#132e65" stroke-width="1.5"></path><path d="M705.3 343.55L848.54 411.67" stroke="#132e65" stroke-width="1.5"></path><path d="M710.73 493.02L710.73 493.02" stroke="#132e65" stroke-width="1.5"></path><path d="M710.73 493.02L839.05 561.61" stroke="#132e65" stroke-width="1.5"></path><path d="M710.73 493.02L848.54 411.67" stroke="#132e65" stroke-width="1.5"></path><path d="M710.73 493.02L519.95 532.69" stroke="#132e65" stroke-width="1.5"></path><path d="M702.86 824.44L702.86 824.44" stroke="#132e65" stroke-width="1.5"></path><path d="M702.86 824.44L803.26 789.17" stroke="#132e65" stroke-width="1.5"></path><path d="M853.99 217.53L853.99 217.53" stroke="#132e65" stroke-width="1.5"></path><path d="M853.99 217.53L967.26 244.26" stroke="#132e65" stroke-width="1.5"></path><path d="M853.99 217.53L848.54 411.67" stroke="#132e65" stroke-width="1.5"></path><path d="M853.99 217.53L705.3 343.55" stroke="#132e65" stroke-width="1.5"></path><path d="M853.99 217.53L993.42 43.72" stroke="#132e65" stroke-width="1.5"></path><path d="M853.99 217.53L1006.62 387.25" stroke="#132e65" stroke-width="1.5"></path><path d="M848.54 411.67L848.54 411.67" stroke="#132e65" stroke-width="1.5"></path><path d="M848.54 411.67L839.05 561.61" stroke="#132e65" stroke-width="1.5"></path><path d="M848.54 411.67L979.07 489.72" stroke="#132e65" stroke-width="1.5"></path><path d="M839.05 561.61L839.05 561.61" stroke="#132e65" stroke-width="1.5"></path><path d="M839.05 561.61L849.52 654.9" stroke="#132e65" stroke-width="1.5"></path><path d="M839.05 561.61L979.07 489.72" stroke="#132e65" stroke-width="1.5"></path><path d="M839.05 561.61L962.39 676.67" stroke="#132e65" stroke-width="1.5"></path><path d="M849.52 654.9L849.52 654.9" stroke="#132e65" stroke-width="1.5"></path><path d="M849.52 654.9L962.39 676.67" stroke="#132e65" stroke-width="1.5"></path><path d="M849.52 654.9L803.26 789.17" stroke="#132e65" stroke-width="1.5"></path><path d="M849.52 654.9L1002.53 793.56" stroke="#132e65" stroke-width="1.5"></path><path d="M803.26 789.17L803.26 789.17" stroke="#132e65" stroke-width="1.5"></path><path d="M803.26 789.17L962.39 676.67" stroke="#132e65" stroke-width="1.5"></path><path d="M946.62 -85.59L946.62 -85.59" stroke="#132e65" stroke-width="1.5"></path><path d="M946.62 -85.59L993.42 43.72" stroke="#132e65" stroke-width="1.5"></path><path d="M946.62 -85.59L1108.14 -100.34" stroke="#132e65" stroke-width="1.5"></path><path d="M946.62 -85.59L1154.28 59.3" stroke="#132e65" stroke-width="1.5"></path><path d="M993.42 43.72L993.42 43.72" stroke="#132e65" stroke-width="1.5"></path><path d="M967.26 244.26L967.26 244.26" stroke="#132e65" stroke-width="1.5"></path><path d="M967.26 244.26L1006.62 387.25" stroke="#132e65" stroke-width="1.5"></path><path d="M967.26 244.26L1122.86 340.97" stroke="#132e65" stroke-width="1.5"></path><path d="M967.26 244.26L1158.94 223.66" stroke="#132e65" stroke-width="1.5"></path><path d="M1006.62 387.25L1006.62 387.25" stroke="#132e65" stroke-width="1.5"></path><path d="M1006.62 387.25L979.07 489.72" stroke="#132e65" stroke-width="1.5"></path><path d="M1006.62 387.25L1122.86 340.97" stroke="#132e65" stroke-width="1.5"></path><path d="M979.07 489.72L979.07 489.72" stroke="#132e65" stroke-width="1.5"></path><path d="M979.07 489.72L1103.86 515.62" stroke="#132e65" stroke-width="1.5"></path><path d="M979.07 489.72L962.39 676.67" stroke="#132e65" stroke-width="1.5"></path><path d="M979.07 489.72L1103.35 644.76" stroke="#132e65" stroke-width="1.5"></path><path d="M962.39 676.67L962.39 676.67" stroke="#132e65" stroke-width="1.5"></path><path d="M962.39 676.67L1002.53 793.56" stroke="#132e65" stroke-width="1.5"></path><path d="M1002.53 793.56L1002.53 793.56" stroke="#132e65" stroke-width="1.5"></path><path d="M1002.53 793.56L1103.35 644.76" stroke="#132e65" stroke-width="1.5"></path><path d="M1108.14 -100.34L1108.14 -100.34" stroke="#132e65" stroke-width="1.5"></path><path d="M1108.14 -100.34L1154.28 59.3" stroke="#132e65" stroke-width="1.5"></path><path d="M1108.14 -100.34L993.42 43.72" stroke="#132e65" stroke-width="1.5"></path><path d="M1154.28 59.3L1154.28 59.3" stroke="#132e65" stroke-width="1.5"></path><path d="M1154.28 59.3L1245.99 72.39" stroke="#132e65" stroke-width="1.5"></path><path d="M1154.28 59.3L993.42 43.72" stroke="#132e65" stroke-width="1.5"></path><path d="M1154.28 59.3L1158.94 223.66" stroke="#132e65" stroke-width="1.5"></path><path d="M1154.28 59.3L1279.74 220.76" stroke="#132e65" stroke-width="1.5"></path><path d="M1158.94 223.66L1158.94 223.66" stroke="#132e65" stroke-width="1.5"></path><path d="M1158.94 223.66L1279.74 220.76" stroke="#132e65" stroke-width="1.5"></path><path d="M1158.94 223.66L1122.86 340.97" stroke="#132e65" stroke-width="1.5"></path><path d="M1122.86 340.97L1122.86 340.97" stroke="#132e65" stroke-width="1.5"></path><path d="M1122.86 340.97L1259.37 364.27" stroke="#132e65" stroke-width="1.5"></path><path d="M1122.86 340.97L1103.86 515.62" stroke="#132e65" stroke-width="1.5"></path><path d="M1103.86 515.62L1103.86 515.62" stroke="#132e65" stroke-width="1.5"></path><path d="M1103.86 515.62L1103.35 644.76" stroke="#132e65" stroke-width="1.5"></path><path d="M1103.86 515.62L1006.62 387.25" stroke="#132e65" stroke-width="1.5"></path><path d="M1103.86 515.62L1302.76 491.5" stroke="#132e65" stroke-width="1.5"></path><path d="M1103.86 515.62L962.39 676.67" stroke="#132e65" stroke-width="1.5"></path><path d="M1103.35 644.76L1103.35 644.76" stroke="#132e65" stroke-width="1.5"></path><path d="M1103.35 644.76L962.39 676.67" stroke="#132e65" stroke-width="1.5"></path><path d="M1103.35 644.76L1239.91 791.4" stroke="#132e65" stroke-width="1.5"></path><path d="M1245.99 72.39L1245.99 72.39" stroke="#132e65" stroke-width="1.5"></path><path d="M1245.99 72.39L1279.74 220.76" stroke="#132e65" stroke-width="1.5"></path><path d="M1279.74 220.76L1279.74 220.76" stroke="#132e65" stroke-width="1.5"></path><path d="M1279.74 220.76L1423.84 228.11" stroke="#132e65" stroke-width="1.5"></path><path d="M1279.74 220.76L1259.37 364.27" stroke="#132e65" stroke-width="1.5"></path><path d="M1279.74 220.76L1404.35 374" stroke="#132e65" stroke-width="1.5"></path><path d="M1259.37 364.27L1259.37 364.27" stroke="#132e65" stroke-width="1.5"></path><path d="M1259.37 364.27L1302.76 491.5" stroke="#132e65" stroke-width="1.5"></path><path d="M1302.76 491.5L1302.76 491.5" stroke="#132e65" stroke-width="1.5"></path><path d="M1302.76 491.5L1409.62 517.06" stroke="#132e65" stroke-width="1.5"></path><path d="M1302.76 491.5L1404.35 374" stroke="#132e65" stroke-width="1.5"></path><path d="M1302.76 491.5L1312.1 701.84" stroke="#132e65" stroke-width="1.5"></path><path d="M1312.1 701.84L1312.1 701.84" stroke="#132e65" stroke-width="1.5"></path><path d="M1312.1 701.84L1403.56 709.84" stroke="#132e65" stroke-width="1.5"></path><path d="M1312.1 701.84L1239.91 791.4" stroke="#132e65" stroke-width="1.5"></path><path d="M1239.91 791.4L1239.91 791.4" stroke="#132e65" stroke-width="1.5"></path><path d="M1239.91 791.4L1403.56 709.84" stroke="#132e65" stroke-width="1.5"></path><path d="M1239.91 791.4L1430.72 790.76" stroke="#132e65" stroke-width="1.5"></path><path d="M1444.58 -98.68L1444.58 -98.68" stroke="#132e65" stroke-width="1.5"></path><path d="M1444.58 -98.68L1599.4 -91.88" stroke="#132e65" stroke-width="1.5"></path><path d="M1444.58 -98.68L1436.83 100.94" stroke="#132e65" stroke-width="1.5"></path><path d="M1444.58 -98.68L1540.17 109.76" stroke="#132e65" stroke-width="1.5"></path><path d="M1436.83 100.94L1436.83 100.94" stroke="#132e65" stroke-width="1.5"></path><path d="M1436.83 100.94L1540.17 109.76" stroke="#132e65" stroke-width="1.5"></path><path d="M1436.83 100.94L1423.84 228.11" stroke="#132e65" stroke-width="1.5"></path><path d="M1436.83 100.94L1245.99 72.39" stroke="#132e65" stroke-width="1.5"></path><path d="M1423.84 228.11L1423.84 228.11" stroke="#132e65" stroke-width="1.5"></path><path d="M1423.84 228.11L1404.35 374" stroke="#132e65" stroke-width="1.5"></path><path d="M1423.84 228.11L1540.17 109.76" stroke="#132e65" stroke-width="1.5"></path><path d="M1404.35 374L1404.35 374" stroke="#132e65" stroke-width="1.5"></path><path d="M1404.35 374L1409.62 517.06" stroke="#132e65" stroke-width="1.5"></path><path d="M1404.35 374L1259.37 364.27" stroke="#132e65" stroke-width="1.5"></path><path d="M1409.62 517.06L1409.62 517.06" stroke="#132e65" stroke-width="1.5"></path><path d="M1403.56 709.84L1403.56 709.84" stroke="#132e65" stroke-width="1.5"></path><path d="M1403.56 709.84L1430.72 790.76" stroke="#132e65" stroke-width="1.5"></path><path d="M1403.56 709.84L1567.32 679.17" stroke="#132e65" stroke-width="1.5"></path><path d="M1430.72 790.76L1430.72 790.76" stroke="#132e65" stroke-width="1.5"></path><path d="M1430.72 790.76L1552.91 850.32" stroke="#132e65" stroke-width="1.5"></path><path d="M1599.4 -91.88L1599.4 -91.88" stroke="#132e65" stroke-width="1.5"></path><path d="M1599.4 -91.88L1722.47 -55.37" stroke="#132e65" stroke-width="1.5"></path><path d="M1540.17 109.76L1540.17 109.76" stroke="#132e65" stroke-width="1.5"></path><path d="M1540.17 109.76L1694.22 91.04" stroke="#132e65" stroke-width="1.5"></path><path d="M1612.15 258.65L1612.15 258.65" stroke="#132e65" stroke-width="1.5"></path><path d="M1612.15 258.65L1559.48 343.43" stroke="#132e65" stroke-width="1.5"></path><path d="M1612.15 258.65L1761.15 216.29" stroke="#132e65" stroke-width="1.5"></path><path d="M1612.15 258.65L1725.94 373.64" stroke="#132e65" stroke-width="1.5"></path><path d="M1612.15 258.65L1540.17 109.76" stroke="#132e65" stroke-width="1.5"></path><path d="M1612.15 258.65L1694.22 91.04" stroke="#132e65" stroke-width="1.5"></path><path d="M1559.48 343.43L1559.48 343.43" stroke="#132e65" stroke-width="1.5"></path><path d="M1559.48 343.43L1404.35 374" stroke="#132e65" stroke-width="1.5"></path><path d="M1559.48 343.43L1567.67 509.23" stroke="#132e65" stroke-width="1.5"></path><path d="M1559.48 343.43L1725.94 373.64" stroke="#132e65" stroke-width="1.5"></path><path d="M1567.67 509.23L1567.67 509.23" stroke="#132e65" stroke-width="1.5"></path><path d="M1567.67 509.23L1409.62 517.06" stroke="#132e65" stroke-width="1.5"></path><path d="M1567.67 509.23L1567.32 679.17" stroke="#132e65" stroke-width="1.5"></path><path d="M1567.67 509.23L1744.5 534.61" stroke="#132e65" stroke-width="1.5"></path><path d="M1567.67 509.23L1725.94 373.64" stroke="#132e65" stroke-width="1.5"></path><path d="M1567.67 509.23L1717.84 656.28" stroke="#132e65" stroke-width="1.5"></path><path d="M1567.32 679.17L1567.32 679.17" stroke="#132e65" stroke-width="1.5"></path><path d="M1567.32 679.17L1717.84 656.28" stroke="#132e65" stroke-width="1.5"></path><path d="M1567.32 679.17L1552.91 850.32" stroke="#132e65" stroke-width="1.5"></path><path d="M1567.32 679.17L1430.72 790.76" stroke="#132e65" stroke-width="1.5"></path><path d="M1567.32 679.17L1706.65 838.47" stroke="#132e65" stroke-width="1.5"></path><path d="M1552.91 850.32L1552.91 850.32" stroke="#132e65" stroke-width="1.5"></path><path d="M1552.91 850.32L1706.65 838.47" stroke="#132e65" stroke-width="1.5"></path><path d="M1552.91 850.32L1403.56 709.84" stroke="#132e65" stroke-width="1.5"></path><path d="M1552.91 850.32L1717.84 656.28" stroke="#132e65" stroke-width="1.5"></path><path d="M1552.91 850.32L1312.1 701.84" stroke="#132e65" stroke-width="1.5"></path><path d="M1722.47 -55.37L1722.47 -55.37" stroke="#132e65" stroke-width="1.5"></path><path d="M1722.47 -55.37L1694.22 91.04" stroke="#132e65" stroke-width="1.5"></path><path d="M1722.47 -55.37L1540.17 109.76" stroke="#132e65" stroke-width="1.5"></path><path d="M1694.22 91.04L1694.22 91.04" stroke="#132e65" stroke-width="1.5"></path><path d="M1694.22 91.04L1761.15 216.29" stroke="#132e65" stroke-width="1.5"></path><path d="M1761.15 216.29L1761.15 216.29" stroke="#132e65" stroke-width="1.5"></path><path d="M1761.15 216.29L1725.94 373.64" stroke="#132e65" stroke-width="1.5"></path><path d="M1761.15 216.29L1559.48 343.43" stroke="#132e65" stroke-width="1.5"></path><path d="M1761.15 216.29L1540.17 109.76" stroke="#132e65" stroke-width="1.5"></path><path d="M1725.94 373.64L1725.94 373.64" stroke="#132e65" stroke-width="1.5"></path><path d="M1725.94 373.64L1744.5 534.61" stroke="#132e65" stroke-width="1.5"></path><path d="M1725.94 373.64L1717.84 656.28" stroke="#132e65" stroke-width="1.5"></path><path d="M1744.5 534.61L1744.5 534.61" stroke="#132e65" stroke-width="1.5"></path><path d="M1744.5 534.61L1717.84 656.28" stroke="#132e65" stroke-width="1.5"></path><path d="M1717.84 656.28L1717.84 656.28" stroke="#132e65" stroke-width="1.5"></path><path d="M1717.84 656.28L1706.65 838.47" stroke="#132e65" stroke-width="1.5"></path><path d="M1706.65 838.47L1706.65 838.47" stroke="#132e65" stroke-width="1.5"></path><circle r="5" cx="-72.12" cy="522.63" fill="#132e65"></circle><circle r="5" cx="-46.82" cy="665.08" fill="#132e65"></circle><circle r="5" cx="-97.97" cy="833.83" fill="#132e65"></circle><circle r="5" cx="62.53" cy="558.43" fill="#132e65"></circle><circle r="5" cx="75.77" cy="689.57" fill="#132e65"></circle><circle r="5" cx="69.96" cy="787.78" fill="#132e65"></circle><circle r="5" cx="217.7" cy="499.62" fill="#132e65"></circle><circle r="5" cx="210.05" cy="840.98" fill="#132e65"></circle><circle r="5" cx="385.83" cy="559.24" fill="#132e65"></circle><circle r="5" cx="377.16" cy="673.75" fill="#132e65"></circle><circle r="5" cx="495.54" cy="381.47" fill="#132e65"></circle><circle r="5" cx="519.95" cy="532.69" fill="#132e65"></circle><circle r="5" cx="546.46" cy="703.61" fill="#132e65"></circle><circle r="5" cx="557.97" cy="795.25" fill="#132e65"></circle><circle r="5" cx="705.3" cy="343.55" fill="#132e65"></circle><circle r="5" cx="710.73" cy="493.02" fill="#132e65"></circle><circle r="5" cx="702.86" cy="824.44" fill="#132e65"></circle><circle r="5" cx="853.99" cy="217.53" fill="#132e65"></circle><circle r="5" cx="848.54" cy="411.67" fill="#132e65"></circle><circle r="5" cx="839.05" cy="561.61" fill="#132e65"></circle><circle r="5" cx="849.52" cy="654.9" fill="#132e65"></circle><circle r="5" cx="803.26" cy="789.17" fill="#132e65"></circle><circle r="5" cx="946.62" cy="-85.59" fill="#132e65"></circle><circle r="5" cx="993.42" cy="43.72" fill="#132e65"></circle><circle r="5" cx="967.26" cy="244.26" fill="#132e65"></circle><circle r="5" cx="1006.62" cy="387.25" fill="#132e65"></circle><circle r="5" cx="979.07" cy="489.72" fill="#132e65"></circle><circle r="5" cx="962.39" cy="676.67" fill="#132e65"></circle><circle r="5" cx="1002.53" cy="793.56" fill="#132e65"></circle><circle r="5" cx="1108.14" cy="-100.34" fill="#132e65"></circle><circle r="5" cx="1154.28" cy="59.3" fill="#132e65"></circle><circle r="5" cx="1158.94" cy="223.66" fill="#132e65"></circle><circle r="5" cx="1122.86" cy="340.97" fill="#132e65"></circle><circle r="5" cx="1103.86" cy="515.62" fill="#132e65"></circle><circle r="5" cx="1103.35" cy="644.76" fill="#132e65"></circle><circle r="5" cx="1245.99" cy="72.39" fill="#132e65"></circle><circle r="5" cx="1279.74" cy="220.76" fill="#132e65"></circle><circle r="5" cx="1259.37" cy="364.27" fill="#132e65"></circle><circle r="5" cx="1302.76" cy="491.5" fill="#132e65"></circle><circle r="5" cx="1312.1" cy="701.84" fill="#132e65"></circle><circle r="5" cx="1239.91" cy="791.4" fill="#132e65"></circle><circle r="5" cx="1444.58" cy="-98.68" fill="#132e65"></circle><circle r="5" cx="1436.83" cy="100.94" fill="#132e65"></circle><circle r="5" cx="1423.84" cy="228.11" fill="#132e65"></circle><circle r="5" cx="1404.35" cy="374" fill="#132e65"></circle><circle r="5" cx="1409.62" cy="517.06" fill="#132e65"></circle><circle r="5" cx="1403.56" cy="709.84" fill="#132e65"></circle><circle r="5" cx="1430.72" cy="790.76" fill="#132e65"></circle><circle r="5" cx="1599.4" cy="-91.88" fill="#132e65"></circle><circle r="5" cx="1540.17" cy="109.76" fill="#132e65"></circle><circle r="5" cx="1612.15" cy="258.65" fill="#132e65"></circle><circle r="5" cx="1559.48" cy="343.43" fill="#132e65"></circle><circle r="5" cx="1567.67" cy="509.23" fill="#132e65"></circle><circle r="5" cx="1567.32" cy="679.17" fill="#132e65"></circle><circle r="5" cx="1552.91" cy="850.32" fill="#132e65"></circle><circle r="5" cx="1722.47" cy="-55.37" fill="#132e65"></circle><circle r="5" cx="1694.22" cy="91.04" fill="#132e65"></circle><circle r="5" cx="1761.15" cy="216.29" fill="#132e65"></circle><circle r="5" cx="1725.94" cy="373.64" fill="#132e65"></circle><circle r="5" cx="1744.5" cy="534.61" fill="#132e65"></circle><circle r="5" cx="1717.84" cy="656.28" fill="#132e65"></circle><circle r="5" cx="1706.65" cy="838.47" fill="#132e65"></circle><path d="M88.41 691.98L88.41 691.98" stroke="hsl(228.5, 77.2%, 51.5%)" stroke-width="1.5"></path><path d="M88.41 691.98L-38.8 648.82" stroke="hsl(228.5, 77.2%, 51.5%)" stroke-width="1.5"></path><path d="M88.41 691.98L221.95 663.81" stroke="hsl(228.5, 77.2%, 51.5%)" stroke-width="1.5"></path><path d="M88.41 691.98L83.43 852.83" stroke="hsl(228.5, 77.2%, 51.5%)" stroke-width="1.5"></path><path d="M88.41 691.98L218.6 794.5" stroke="hsl(228.5, 77.2%, 51.5%)" stroke-width="1.5"></path><path d="M88.41 691.98L192.27 551.07" stroke="hsl(228.5, 77.2%, 51.5%)" stroke-width="1.5"></path><path d="M83.43 852.83L83.43 852.83" stroke="hsl(228.5, 77.2%, 51.5%)" stroke-width="1.5"></path><path d="M83.43 852.83L218.6 794.5" stroke="hsl(228.5, 77.2%, 51.5%)" stroke-width="1.5"></path><path d="M83.43 852.83L-110.22 831.04" stroke="hsl(228.5, 77.2%, 51.5%)" stroke-width="1.5"></path><path d="M83.43 852.83L221.95 663.81" stroke="hsl(228.5, 77.2%, 51.5%)" stroke-width="1.5"></path><path d="M192.27 551.07L192.27 551.07" stroke="hsl(228.5, 77.2%, 51.5%)" stroke-width="1.5"></path><path d="M192.27 551.07L221.95 663.81" stroke="hsl(228.5, 77.2%, 51.5%)" stroke-width="1.5"></path><path d="M192.27 551.07L361.55 689.18" stroke="hsl(228.5, 77.2%, 51.5%)" stroke-width="1.5"></path><path d="M192.27 551.07L218.6 794.5" stroke="hsl(228.5, 77.2%, 51.5%)" stroke-width="1.5"></path><path d="M192.27 551.07L-38.8 648.82" stroke="hsl(228.5, 77.2%, 51.5%)" stroke-width="1.5"></path><path d="M192.27 551.07L83.43 852.83" stroke="hsl(228.5, 77.2%, 51.5%)" stroke-width="1.5"></path><path d="M218.6 794.5L218.6 794.5" stroke="hsl(228.5, 77.2%, 51.5%)" stroke-width="1.5"></path><path d="M218.6 794.5L221.95 663.81" stroke="hsl(228.5, 77.2%, 51.5%)" stroke-width="1.5"></path><path d="M403.92 843.68L403.92 843.68" stroke="hsl(228.5, 77.2%, 51.5%)" stroke-width="1.5"></path><path d="M403.92 843.68L510.65 815.61" stroke="hsl(228.5, 77.2%, 51.5%)" stroke-width="1.5"></path><path d="M403.92 843.68L361.55 689.18" stroke="hsl(228.5, 77.2%, 51.5%)" stroke-width="1.5"></path><path d="M403.92 843.68L218.6 794.5" stroke="hsl(228.5, 77.2%, 51.5%)" stroke-width="1.5"></path><path d="M968.58 382.35L968.58 382.35" stroke="hsl(228.5, 77.2%, 51.5%)" stroke-width="1.5"></path><path d="M968.58 382.35L1121.68 384.07" stroke="hsl(228.5, 77.2%, 51.5%)" stroke-width="1.5"></path><path d="M968.58 382.35L956.65 559.11" stroke="hsl(228.5, 77.2%, 51.5%)" stroke-width="1.5"></path><path d="M1153.25 831.88L1153.25 831.88" stroke="hsl(228.5, 77.2%, 51.5%)" stroke-width="1.5"></path><path d="M1153.25 831.88L1247.12 803.76" stroke="hsl(228.5, 77.2%, 51.5%)" stroke-width="1.5"></path><path d="M1153.25 831.88L1162.34 708.31" stroke="hsl(228.5, 77.2%, 51.5%)" stroke-width="1.5"></path><path d="M1153.25 831.88L957.79 799.24" stroke="hsl(228.5, 77.2%, 51.5%)" stroke-width="1.5"></path><path d="M1153.25 831.88L1278.08 673.77" stroke="hsl(228.5, 77.2%, 51.5%)" stroke-width="1.5"></path><path d="M1153.25 831.88L1396.04 705.07" stroke="hsl(228.5, 77.2%, 51.5%)" stroke-width="1.5"></path><path d="M1309.28 -108.05L1309.28 -108.05" stroke="hsl(228.5, 77.2%, 51.5%)" stroke-width="1.5"></path><path d="M1309.28 -108.05L1453.42 -70.72" stroke="hsl(228.5, 77.2%, 51.5%)" stroke-width="1.5"></path><path d="M1309.28 -108.05L1241.32 74.88" stroke="hsl(228.5, 77.2%, 51.5%)" stroke-width="1.5"></path><path d="M1309.28 -108.05L1405.07 62.38" stroke="hsl(228.5, 77.2%, 51.5%)" stroke-width="1.5"></path><path d="M1309.28 -108.05L1572.54 -48.28" stroke="hsl(228.5, 77.2%, 51.5%)" stroke-width="1.5"></path><path d="M1268.21 519.57L1268.21 519.57" stroke="hsl(228.5, 77.2%, 51.5%)" stroke-width="1.5"></path><path d="M1268.21 519.57L1291.19 398.51" stroke="hsl(228.5, 77.2%, 51.5%)" stroke-width="1.5"></path><path d="M1268.21 519.57L1128.48 511.82" stroke="hsl(228.5, 77.2%, 51.5%)" stroke-width="1.5"></path><path d="M1453.42 -70.72L1453.42 -70.72" stroke="hsl(228.5, 77.2%, 51.5%)" stroke-width="1.5"></path><path d="M1453.42 -70.72L1572.54 -48.28" stroke="hsl(228.5, 77.2%, 51.5%)" stroke-width="1.5"></path><path d="M1453.42 -70.72L1405.07 62.38" stroke="hsl(228.5, 77.2%, 51.5%)" stroke-width="1.5"></path><path d="M1453.42 -70.72L1539.77 71.08" stroke="hsl(228.5, 77.2%, 51.5%)" stroke-width="1.5"></path><path d="M1453.42 -70.72L1241.32 74.88" stroke="hsl(228.5, 77.2%, 51.5%)" stroke-width="1.5"></path><path d="M1453.42 -70.72L1422 198.22" stroke="hsl(228.5, 77.2%, 51.5%)" stroke-width="1.5"></path><path d="M1432.58 384.46L1432.58 384.46" stroke="hsl(228.5, 77.2%, 51.5%)" stroke-width="1.5"></path><path d="M1432.58 384.46L1462.1 499.75" stroke="hsl(228.5, 77.2%, 51.5%)" stroke-width="1.5"></path><path d="M1432.58 384.46L1560.48 384.72" stroke="hsl(228.5, 77.2%, 51.5%)" stroke-width="1.5"></path><path d="M-38.8 648.82L-38.8 648.82" stroke="hsl(228.5, 77.2%, 51.5%)" stroke-width="1.5"></path><path d="M-38.8 648.82L-110.22 831.04" stroke="hsl(228.5, 77.2%, 51.5%)" stroke-width="1.5"></path><path d="M-38.8 648.82L83.43 852.83" stroke="hsl(228.5, 77.2%, 51.5%)" stroke-width="1.5"></path><path d="M-38.8 648.82L221.95 663.81" stroke="hsl(228.5, 77.2%, 51.5%)" stroke-width="1.5"></path><path d="M-110.22 831.04L-110.22 831.04" stroke="hsl(228.5, 77.2%, 51.5%)" stroke-width="1.5"></path><path d="M-110.22 831.04L88.41 691.98" stroke="hsl(228.5, 77.2%, 51.5%)" stroke-width="1.5"></path><path d="M221.95 663.81L221.95 663.81" stroke="hsl(228.5, 77.2%, 51.5%)" stroke-width="1.5"></path><path d="M221.95 663.81L361.55 689.18" stroke="hsl(228.5, 77.2%, 51.5%)" stroke-width="1.5"></path><path d="M361.55 689.18L361.55 689.18" stroke="hsl(228.5, 77.2%, 51.5%)" stroke-width="1.5"></path><path d="M529.09 523.04L529.09 523.04" stroke="hsl(228.5, 77.2%, 51.5%)" stroke-width="1.5"></path><path d="M529.09 523.04L662.82 543.79" stroke="hsl(228.5, 77.2%, 51.5%)" stroke-width="1.5"></path><path d="M529.09 523.04L638.14 671.25" stroke="hsl(228.5, 77.2%, 51.5%)" stroke-width="1.5"></path><path d="M529.09 523.04L361.55 689.18" stroke="hsl(228.5, 77.2%, 51.5%)" stroke-width="1.5"></path><path d="M529.09 523.04L510.65 815.61" stroke="hsl(228.5, 77.2%, 51.5%)" stroke-width="1.5"></path><path d="M529.09 523.04L825.49 515.88" stroke="hsl(228.5, 77.2%, 51.5%)" stroke-width="1.5"></path><path d="M529.09 523.04L221.95 663.81" stroke="hsl(228.5, 77.2%, 51.5%)" stroke-width="1.5"></path><path d="M510.65 815.61L510.65 815.61" stroke="hsl(228.5, 77.2%, 51.5%)" stroke-width="1.5"></path><path d="M662.82 543.79L662.82 543.79" stroke="hsl(228.5, 77.2%, 51.5%)" stroke-width="1.5"></path><path d="M662.82 543.79L638.14 671.25" stroke="hsl(228.5, 77.2%, 51.5%)" stroke-width="1.5"></path><path d="M662.82 543.79L825.49 515.88" stroke="hsl(228.5, 77.2%, 51.5%)" stroke-width="1.5"></path><path d="M662.82 543.79L823.86 694.95" stroke="hsl(228.5, 77.2%, 51.5%)" stroke-width="1.5"></path><path d="M662.82 543.79L956.65 559.11" stroke="hsl(228.5, 77.2%, 51.5%)" stroke-width="1.5"></path><path d="M662.82 543.79L703.23 840.4" stroke="hsl(228.5, 77.2%, 51.5%)" stroke-width="1.5"></path><path d="M638.14 671.25L638.14 671.25" stroke="hsl(228.5, 77.2%, 51.5%)" stroke-width="1.5"></path><path d="M638.14 671.25L703.23 840.4" stroke="hsl(228.5, 77.2%, 51.5%)" stroke-width="1.5"></path><path d="M638.14 671.25L823.86 694.95" stroke="hsl(228.5, 77.2%, 51.5%)" stroke-width="1.5"></path><path d="M638.14 671.25L510.65 815.61" stroke="hsl(228.5, 77.2%, 51.5%)" stroke-width="1.5"></path><path d="M703.23 840.4L703.23 840.4" stroke="hsl(228.5, 77.2%, 51.5%)" stroke-width="1.5"></path><path d="M703.23 840.4L835.75 815.02" stroke="hsl(228.5, 77.2%, 51.5%)" stroke-width="1.5"></path><path d="M703.23 840.4L823.86 694.95" stroke="hsl(228.5, 77.2%, 51.5%)" stroke-width="1.5"></path><path d="M703.23 840.4L510.65 815.61" stroke="hsl(228.5, 77.2%, 51.5%)" stroke-width="1.5"></path><path d="M703.23 840.4L957.79 799.24" stroke="hsl(228.5, 77.2%, 51.5%)" stroke-width="1.5"></path><path d="M703.23 840.4L403.92 843.68" stroke="hsl(228.5, 77.2%, 51.5%)" stroke-width="1.5"></path><path d="M825.49 515.88L825.49 515.88" stroke="hsl(228.5, 77.2%, 51.5%)" stroke-width="1.5"></path><path d="M825.49 515.88L956.65 559.11" stroke="hsl(228.5, 77.2%, 51.5%)" stroke-width="1.5"></path><path d="M825.49 515.88L823.86 694.95" stroke="hsl(228.5, 77.2%, 51.5%)" stroke-width="1.5"></path><path d="M825.49 515.88L968.58 382.35" stroke="hsl(228.5, 77.2%, 51.5%)" stroke-width="1.5"></path><path d="M825.49 515.88L638.14 671.25" stroke="hsl(228.5, 77.2%, 51.5%)" stroke-width="1.5"></path><path d="M823.86 694.95L823.86 694.95" stroke="hsl(228.5, 77.2%, 51.5%)" stroke-width="1.5"></path><path d="M823.86 694.95L835.75 815.02" stroke="hsl(228.5, 77.2%, 51.5%)" stroke-width="1.5"></path><path d="M823.86 694.95L957.79 799.24" stroke="hsl(228.5, 77.2%, 51.5%)" stroke-width="1.5"></path><path d="M835.75 815.02L835.75 815.02" stroke="hsl(228.5, 77.2%, 51.5%)" stroke-width="1.5"></path><path d="M835.75 815.02L957.79 799.24" stroke="hsl(228.5, 77.2%, 51.5%)" stroke-width="1.5"></path><path d="M835.75 815.02L638.14 671.25" stroke="hsl(228.5, 77.2%, 51.5%)" stroke-width="1.5"></path><path d="M835.75 815.02L956.65 559.11" stroke="hsl(228.5, 77.2%, 51.5%)" stroke-width="1.5"></path><path d="M956.65 559.11L956.65 559.11" stroke="hsl(228.5, 77.2%, 51.5%)" stroke-width="1.5"></path><path d="M957.79 799.24L957.79 799.24" stroke="hsl(228.5, 77.2%, 51.5%)" stroke-width="1.5"></path><path d="M957.79 799.24L1162.34 708.31" stroke="hsl(228.5, 77.2%, 51.5%)" stroke-width="1.5"></path><path d="M1121.68 384.07L1121.68 384.07" stroke="hsl(228.5, 77.2%, 51.5%)" stroke-width="1.5"></path><path d="M1121.68 384.07L1128.48 511.82" stroke="hsl(228.5, 77.2%, 51.5%)" stroke-width="1.5"></path><path d="M1121.68 384.07L1291.19 398.51" stroke="hsl(228.5, 77.2%, 51.5%)" stroke-width="1.5"></path><path d="M1121.68 384.07L1268.21 519.57" stroke="hsl(228.5, 77.2%, 51.5%)" stroke-width="1.5"></path><path d="M1128.48 511.82L1128.48 511.82" stroke="hsl(228.5, 77.2%, 51.5%)" stroke-width="1.5"></path><path d="M1162.34 708.31L1162.34 708.31" stroke="hsl(228.5, 77.2%, 51.5%)" stroke-width="1.5"></path><path d="M1162.34 708.31L1278.08 673.77" stroke="hsl(228.5, 77.2%, 51.5%)" stroke-width="1.5"></path><path d="M1241.32 74.88L1241.32 74.88" stroke="hsl(228.5, 77.2%, 51.5%)" stroke-width="1.5"></path><path d="M1241.32 74.88L1256.83 208.7" stroke="hsl(228.5, 77.2%, 51.5%)" stroke-width="1.5"></path><path d="M1241.32 74.88L1405.07 62.38" stroke="hsl(228.5, 77.2%, 51.5%)" stroke-width="1.5"></path><path d="M1256.83 208.7L1256.83 208.7" stroke="hsl(228.5, 77.2%, 51.5%)" stroke-width="1.5"></path><path d="M1256.83 208.7L1422 198.22" stroke="hsl(228.5, 77.2%, 51.5%)" stroke-width="1.5"></path><path d="M1256.83 208.7L1291.19 398.51" stroke="hsl(228.5, 77.2%, 51.5%)" stroke-width="1.5"></path><path d="M1256.83 208.7L1405.07 62.38" stroke="hsl(228.5, 77.2%, 51.5%)" stroke-width="1.5"></path><path d="M1256.83 208.7L1121.68 384.07" stroke="hsl(228.5, 77.2%, 51.5%)" stroke-width="1.5"></path><path d="M1291.19 398.51L1291.19 398.51" stroke="hsl(228.5, 77.2%, 51.5%)" stroke-width="1.5"></path><path d="M1291.19 398.51L1432.58 384.46" stroke="hsl(228.5, 77.2%, 51.5%)" stroke-width="1.5"></path><path d="M1278.08 673.77L1278.08 673.77" stroke="hsl(228.5, 77.2%, 51.5%)" stroke-width="1.5"></path><path d="M1278.08 673.77L1396.04 705.07" stroke="hsl(228.5, 77.2%, 51.5%)" stroke-width="1.5"></path><path d="M1278.08 673.77L1247.12 803.76" stroke="hsl(228.5, 77.2%, 51.5%)" stroke-width="1.5"></path><path d="M1247.12 803.76L1247.12 803.76" stroke="hsl(228.5, 77.2%, 51.5%)" stroke-width="1.5"></path><path d="M1247.12 803.76L1162.34 708.31" stroke="hsl(228.5, 77.2%, 51.5%)" stroke-width="1.5"></path><path d="M1247.12 803.76L1396.04 705.07" stroke="hsl(228.5, 77.2%, 51.5%)" stroke-width="1.5"></path><path d="M1247.12 803.76L1455.61 791.69" stroke="hsl(228.5, 77.2%, 51.5%)" stroke-width="1.5"></path><path d="M1405.07 62.38L1405.07 62.38" stroke="hsl(228.5, 77.2%, 51.5%)" stroke-width="1.5"></path><path d="M1405.07 62.38L1539.77 71.08" stroke="hsl(228.5, 77.2%, 51.5%)" stroke-width="1.5"></path><path d="M1405.07 62.38L1422 198.22" stroke="hsl(228.5, 77.2%, 51.5%)" stroke-width="1.5"></path><path d="M1422 198.22L1422 198.22" stroke="hsl(228.5, 77.2%, 51.5%)" stroke-width="1.5"></path><path d="M1422 198.22L1568.74 195.21" stroke="hsl(228.5, 77.2%, 51.5%)" stroke-width="1.5"></path><path d="M1462.1 499.75L1462.1 499.75" stroke="hsl(228.5, 77.2%, 51.5%)" stroke-width="1.5"></path><path d="M1462.1 499.75L1560.48 384.72" stroke="hsl(228.5, 77.2%, 51.5%)" stroke-width="1.5"></path><path d="M1462.1 499.75L1605.87 549.42" stroke="hsl(228.5, 77.2%, 51.5%)" stroke-width="1.5"></path><path d="M1462.1 499.75L1268.21 519.57" stroke="hsl(228.5, 77.2%, 51.5%)" stroke-width="1.5"></path><path d="M1462.1 499.75L1291.19 398.51" stroke="hsl(228.5, 77.2%, 51.5%)" stroke-width="1.5"></path><path d="M1396.04 705.07L1396.04 705.07" stroke="hsl(228.5, 77.2%, 51.5%)" stroke-width="1.5"></path><path d="M1396.04 705.07L1455.61 791.69" stroke="hsl(228.5, 77.2%, 51.5%)" stroke-width="1.5"></path><path d="M1455.61 791.69L1455.61 791.69" stroke="hsl(228.5, 77.2%, 51.5%)" stroke-width="1.5"></path><path d="M1455.61 791.69L1562.71 833.07" stroke="hsl(228.5, 77.2%, 51.5%)" stroke-width="1.5"></path><path d="M1455.61 791.69L1609.74 710.42" stroke="hsl(228.5, 77.2%, 51.5%)" stroke-width="1.5"></path><path d="M1455.61 791.69L1278.08 673.77" stroke="hsl(228.5, 77.2%, 51.5%)" stroke-width="1.5"></path><path d="M1455.61 791.69L1605.87 549.42" stroke="hsl(228.5, 77.2%, 51.5%)" stroke-width="1.5"></path><path d="M1572.54 -48.28L1572.54 -48.28" stroke="hsl(228.5, 77.2%, 51.5%)" stroke-width="1.5"></path><path d="M1572.54 -48.28L1539.77 71.08" stroke="hsl(228.5, 77.2%, 51.5%)" stroke-width="1.5"></path><path d="M1572.54 -48.28L1707.2 52.25" stroke="hsl(228.5, 77.2%, 51.5%)" stroke-width="1.5"></path><path d="M1572.54 -48.28L1405.07 62.38" stroke="hsl(228.5, 77.2%, 51.5%)" stroke-width="1.5"></path><path d="M1539.77 71.08L1539.77 71.08" stroke="hsl(228.5, 77.2%, 51.5%)" stroke-width="1.5"></path><path d="M1539.77 71.08L1568.74 195.21" stroke="hsl(228.5, 77.2%, 51.5%)" stroke-width="1.5"></path><path d="M1539.77 71.08L1707.2 52.25" stroke="hsl(228.5, 77.2%, 51.5%)" stroke-width="1.5"></path><path d="M1539.77 71.08L1422 198.22" stroke="hsl(228.5, 77.2%, 51.5%)" stroke-width="1.5"></path><path d="M1568.74 195.21L1568.74 195.21" stroke="hsl(228.5, 77.2%, 51.5%)" stroke-width="1.5"></path><path d="M1568.74 195.21L1560.48 384.72" stroke="hsl(228.5, 77.2%, 51.5%)" stroke-width="1.5"></path><path d="M1568.74 195.21L1707.2 52.25" stroke="hsl(228.5, 77.2%, 51.5%)" stroke-width="1.5"></path><path d="M1560.48 384.72L1560.48 384.72" stroke="hsl(228.5, 77.2%, 51.5%)" stroke-width="1.5"></path><path d="M1560.48 384.72L1718.42 345.6" stroke="hsl(228.5, 77.2%, 51.5%)" stroke-width="1.5"></path><path d="M1560.48 384.72L1605.87 549.42" stroke="hsl(228.5, 77.2%, 51.5%)" stroke-width="1.5"></path><path d="M1605.87 549.42L1605.87 549.42" stroke="hsl(228.5, 77.2%, 51.5%)" stroke-width="1.5"></path><path d="M1605.87 549.42L1721.4 512.19" stroke="hsl(228.5, 77.2%, 51.5%)" stroke-width="1.5"></path><path d="M1609.74 710.42L1609.74 710.42" stroke="hsl(228.5, 77.2%, 51.5%)" stroke-width="1.5"></path><path d="M1609.74 710.42L1562.71 833.07" stroke="hsl(228.5, 77.2%, 51.5%)" stroke-width="1.5"></path><path d="M1609.74 710.42L1750.66 705.2" stroke="hsl(228.5, 77.2%, 51.5%)" stroke-width="1.5"></path><path d="M1609.74 710.42L1605.87 549.42" stroke="hsl(228.5, 77.2%, 51.5%)" stroke-width="1.5"></path><path d="M1562.71 833.07L1562.71 833.07" stroke="hsl(228.5, 77.2%, 51.5%)" stroke-width="1.5"></path><path d="M1562.71 833.07L1741.42 836.09" stroke="hsl(228.5, 77.2%, 51.5%)" stroke-width="1.5"></path><path d="M1562.71 833.07L1396.04 705.07" stroke="hsl(228.5, 77.2%, 51.5%)" stroke-width="1.5"></path><path d="M1707.2 52.25L1707.2 52.25" stroke="hsl(228.5, 77.2%, 51.5%)" stroke-width="1.5"></path><path d="M1718.42 345.6L1718.42 345.6" stroke="hsl(228.5, 77.2%, 51.5%)" stroke-width="1.5"></path><path d="M1718.42 345.6L1721.4 512.19" stroke="hsl(228.5, 77.2%, 51.5%)" stroke-width="1.5"></path><path d="M1718.42 345.6L1568.74 195.21" stroke="hsl(228.5, 77.2%, 51.5%)" stroke-width="1.5"></path><path d="M1718.42 345.6L1605.87 549.42" stroke="hsl(228.5, 77.2%, 51.5%)" stroke-width="1.5"></path><path d="M1718.42 345.6L1432.58 384.46" stroke="hsl(228.5, 77.2%, 51.5%)" stroke-width="1.5"></path><path d="M1718.42 345.6L1707.2 52.25" stroke="hsl(228.5, 77.2%, 51.5%)" stroke-width="1.5"></path><path d="M1721.4 512.19L1721.4 512.19" stroke="hsl(228.5, 77.2%, 51.5%)" stroke-width="1.5"></path><path d="M1721.4 512.19L1750.66 705.2" stroke="hsl(228.5, 77.2%, 51.5%)" stroke-width="1.5"></path><path d="M1721.4 512.19L1560.48 384.72" stroke="hsl(228.5, 77.2%, 51.5%)" stroke-width="1.5"></path><path d="M1721.4 512.19L1609.74 710.42" stroke="hsl(228.5, 77.2%, 51.5%)" stroke-width="1.5"></path><path d="M1721.4 512.19L1462.1 499.75" stroke="hsl(228.5, 77.2%, 51.5%)" stroke-width="1.5"></path><path d="M1750.66 705.2L1750.66 705.2" stroke="hsl(228.5, 77.2%, 51.5%)" stroke-width="1.5"></path><path d="M1750.66 705.2L1741.42 836.09" stroke="hsl(228.5, 77.2%, 51.5%)" stroke-width="1.5"></path><path d="M1750.66 705.2L1605.87 549.42" stroke="hsl(228.5, 77.2%, 51.5%)" stroke-width="1.5"></path><path d="M1750.66 705.2L1562.71 833.07" stroke="hsl(228.5, 77.2%, 51.5%)" stroke-width="1.5"></path><path d="M1741.42 836.09L1741.42 836.09" stroke="hsl(228.5, 77.2%, 51.5%)" stroke-width="1.5"></path><path d="M1741.42 836.09L1609.74 710.42" stroke="hsl(228.5, 77.2%, 51.5%)" stroke-width="1.5"></path><circle r="25" cx="88.41" cy="691.98" fill="url(&quot;#SvgjsRadialGradient1033&quot;)"></circle><circle r="25" cx="83.43" cy="852.83" fill="url(&quot;#SvgjsRadialGradient1033&quot;)"></circle><circle r="25" cx="192.27" cy="551.07" fill="url(&quot;#SvgjsRadialGradient1033&quot;)"></circle><circle r="25" cx="218.6" cy="794.5" fill="url(&quot;#SvgjsRadialGradient1033&quot;)"></circle><circle r="25" cx="403.92" cy="843.68" fill="url(&quot;#SvgjsRadialGradient1033&quot;)"></circle><circle r="25" cx="968.58" cy="382.35" fill="url(&quot;#SvgjsRadialGradient1033&quot;)"></circle><circle r="25" cx="1153.25" cy="831.88" fill="url(&quot;#SvgjsRadialGradient1033&quot;)"></circle><circle r="25" cx="1309.28" cy="-108.05" fill="url(&quot;#SvgjsRadialGradient1033&quot;)"></circle><circle r="25" cx="1268.21" cy="519.57" fill="url(&quot;#SvgjsRadialGradient1033&quot;)"></circle><circle r="25" cx="1453.42" cy="-70.72" fill="url(&quot;#SvgjsRadialGradient1033&quot;)"></circle><circle r="25" cx="1432.58" cy="384.46" fill="url(&quot;#SvgjsRadialGradient1033&quot;)"></circle><circle r="5" cx="-38.8" cy="648.82" fill="#8b9ad9"></circle><circle r="5" cx="-110.22" cy="831.04" fill="#8b9ad9"></circle><circle r="5" cx="221.95" cy="663.81" fill="#8b9ad9"></circle><circle r="5" cx="361.55" cy="689.18" fill="#8b9ad9"></circle><circle r="5" cx="529.09" cy="523.04" fill="#8b9ad9"></circle><circle r="5" cx="510.65" cy="815.61" fill="#8b9ad9"></circle><circle r="5" cx="662.82" cy="543.79" fill="#8b9ad9"></circle><circle r="5" cx="638.14" cy="671.25" fill="#8b9ad9"></circle><circle r="5" cx="703.23" cy="840.4" fill="#8b9ad9"></circle><circle r="5" cx="825.49" cy="515.88" fill="#8b9ad9"></circle><circle r="5" cx="823.86" cy="694.95" fill="#8b9ad9"></circle><circle r="5" cx="835.75" cy="815.02" fill="#8b9ad9"></circle><circle r="5" cx="956.65" cy="559.11" fill="#8b9ad9"></circle><circle r="5" cx="957.79" cy="799.24" fill="#8b9ad9"></circle><circle r="5" cx="1121.68" cy="384.07" fill="#8b9ad9"></circle><circle r="5" cx="1128.48" cy="511.82" fill="#8b9ad9"></circle><circle r="5" cx="1162.34" cy="708.31" fill="#8b9ad9"></circle><circle r="5" cx="1241.32" cy="74.88" fill="#8b9ad9"></circle><circle r="5" cx="1256.83" cy="208.7" fill="#8b9ad9"></circle><circle r="5" cx="1291.19" cy="398.51" fill="#8b9ad9"></circle><circle r="5" cx="1278.08" cy="673.77" fill="#8b9ad9"></circle><circle r="5" cx="1247.12" cy="803.76" fill="#8b9ad9"></circle><circle r="5" cx="1405.07" cy="62.38" fill="#8b9ad9"></circle><circle r="5" cx="1422" cy="198.22" fill="#8b9ad9"></circle><circle r="5" cx="1462.1" cy="499.75" fill="#8b9ad9"></circle><circle r="5" cx="1396.04" cy="705.07" fill="#8b9ad9"></circle><circle r="5" cx="1455.61" cy="791.69" fill="#8b9ad9"></circle><circle r="5" cx="1572.54" cy="-48.28" fill="#8b9ad9"></circle><circle r="5" cx="1539.77" cy="71.08" fill="#8b9ad9"></circle><circle r="5" cx="1568.74" cy="195.21" fill="#8b9ad9"></circle><circle r="5" cx="1560.48" cy="384.72" fill="#8b9ad9"></circle><circle r="5" cx="1605.87" cy="549.42" fill="#8b9ad9"></circle><circle r="5" cx="1609.74" cy="710.42" fill="#8b9ad9"></circle><circle r="5" cx="1562.71" cy="833.07" fill="#8b9ad9"></circle><circle r="5" cx="1707.2" cy="52.25" fill="#8b9ad9"></circle><circle r="5" cx="1718.42" cy="345.6" fill="#8b9ad9"></circle><circle r="5" cx="1721.4" cy="512.19" fill="#8b9ad9"></circle><circle r="5" cx="1750.66" cy="705.2" fill="#8b9ad9"></circle><circle r="5" cx="1741.42" cy="836.09" fill="#8b9ad9"></circle></g><defs><mask id="SvgjsMask1032"><rect width="1536" height="695" fill="#ffffff"></rect></mask><radialGradient id="SvgjsRadialGradient1033"><stop stop-color="#ffffff" offset="0.1"></stop><stop stop-color="#1735b3" offset="0.2"></stop><stop stop-color="rgba(23, 53, 179, 0)" offset="1"></stop></radialGradient></defs></svg>